<mxfile host="app.diagrams.net" modified="2024-05-17T11:49:39.780Z" agent="Mozilla/5.0 (Windows NT 10.0; Win64; x64) AppleWebKit/537.36 (KHTML, like Gecko) Chrome/124.0.0.0 Safari/537.36 Edg/124.0.0.0" etag="VJuMX4_mL8PkqaIOd5yF" version="24.4.3" type="github">
  <diagram name="Seite-1" id="e3gTe7wbns6cE2BKe8TQ">
    <mxGraphModel dx="830" dy="400" grid="1" gridSize="10" guides="1" tooltips="1" connect="1" arrows="1" fold="1" page="1" pageScale="1" pageWidth="827" pageHeight="1169" math="0" shadow="0">
      <root>
        <mxCell id="0" />
        <mxCell id="1" parent="0" />
        <mxCell id="qcsIHLgInA1QgSfUokJL-1" value="Schüler" style="swimlane;html=1;startSize=20;fontStyle=0;collapsible=0;horizontal=0;swimlaneLine=1;swimlaneFillColor=#ffffff;strokeWidth=2;whiteSpace=wrap;" parent="1" vertex="1">
          <mxGeometry x="40" y="180" width="1230" height="420" as="geometry" />
        </mxCell>
        <mxCell id="qcsIHLgInA1QgSfUokJL-4" value="erfordert Anmeldung" style="points=[[0.145,0.145,0],[0.5,0,0],[0.855,0.145,0],[1,0.5,0],[0.855,0.855,0],[0.5,1,0],[0.145,0.855,0],[0,0.5,0]];shape=mxgraph.bpmn.event;html=1;verticalLabelPosition=bottom;labelBackgroundColor=#ffffff;verticalAlign=top;align=center;perimeter=ellipsePerimeter;outlineConnect=0;aspect=fixed;outline=standard;symbol=general;" parent="qcsIHLgInA1QgSfUokJL-1" vertex="1">
          <mxGeometry x="50" y="180" width="50" height="50" as="geometry" />
        </mxCell>
        <mxCell id="qcsIHLgInA1QgSfUokJL-7" value="Kontakt zur DOJO-Schule" style="points=[[0.25,0,0],[0.5,0,0],[0.75,0,0],[1,0.25,0],[1,0.5,0],[1,0.75,0],[0.75,1,0],[0.5,1,0],[0.25,1,0],[0,0.75,0],[0,0.5,0],[0,0.25,0]];shape=mxgraph.bpmn.task;whiteSpace=wrap;rectStyle=rounded;size=10;html=1;container=1;expand=0;collapsible=0;taskMarker=abstract;" parent="qcsIHLgInA1QgSfUokJL-1" vertex="1">
          <mxGeometry x="190" y="165" width="120" height="80" as="geometry" />
        </mxCell>
        <mxCell id="qcsIHLgInA1QgSfUokJL-8" value="" style="edgeStyle=elbowEdgeStyle;fontSize=12;html=1;endArrow=blockThin;endFill=1;rounded=0;exitX=1;exitY=0.5;exitDx=0;exitDy=0;exitPerimeter=0;entryX=0;entryY=0.5;entryDx=0;entryDy=0;entryPerimeter=0;" parent="qcsIHLgInA1QgSfUokJL-1" source="qcsIHLgInA1QgSfUokJL-4" target="qcsIHLgInA1QgSfUokJL-7" edge="1">
          <mxGeometry width="160" relative="1" as="geometry">
            <mxPoint x="90" y="111" as="sourcePoint" />
            <mxPoint x="180" y="56" as="targetPoint" />
          </mxGeometry>
        </mxCell>
        <mxCell id="qcsIHLgInA1QgSfUokJL-10" value="Antwort erhalten" style="points=[[0.145,0.145,0],[0.5,0,0],[0.855,0.145,0],[1,0.5,0],[0.855,0.855,0],[0.5,1,0],[0.145,0.855,0],[0,0.5,0]];shape=mxgraph.bpmn.event;html=1;verticalLabelPosition=bottom;labelBackgroundColor=#ffffff;verticalAlign=top;align=center;perimeter=ellipsePerimeter;outlineConnect=0;aspect=fixed;outline=throwing;symbol=general;" parent="qcsIHLgInA1QgSfUokJL-1" vertex="1">
          <mxGeometry x="390" y="180" width="50" height="50" as="geometry" />
        </mxCell>
        <mxCell id="qcsIHLgInA1QgSfUokJL-11" value="" style="edgeStyle=elbowEdgeStyle;fontSize=12;html=1;endArrow=blockThin;endFill=1;rounded=0;exitX=1;exitY=0.5;exitDx=0;exitDy=0;exitPerimeter=0;entryX=0;entryY=0.5;entryDx=0;entryDy=0;entryPerimeter=0;" parent="qcsIHLgInA1QgSfUokJL-1" source="qcsIHLgInA1QgSfUokJL-7" target="qcsIHLgInA1QgSfUokJL-10" edge="1">
          <mxGeometry width="160" relative="1" as="geometry">
            <mxPoint x="334" y="144.5" as="sourcePoint" />
            <mxPoint x="390" y="56" as="targetPoint" />
          </mxGeometry>
        </mxCell>
        <mxCell id="qcsIHLgInA1QgSfUokJL-12" value="" style="points=[[0.25,0.25,0],[0.5,0,0],[0.75,0.25,0],[1,0.5,0],[0.75,0.75,0],[0.5,1,0],[0.25,0.75,0],[0,0.5,0]];shape=mxgraph.bpmn.gateway2;html=1;verticalLabelPosition=bottom;labelBackgroundColor=#ffffff;verticalAlign=top;align=center;perimeter=rhombusPerimeter;outlineConnect=0;outline=none;symbol=none;gwType=exclusive;" parent="qcsIHLgInA1QgSfUokJL-1" vertex="1">
          <mxGeometry x="500" y="180" width="50" height="50" as="geometry" />
        </mxCell>
        <mxCell id="qcsIHLgInA1QgSfUokJL-13" value="Student ist DOJO-Mitglied" style="points=[[0.25,0,0],[0.5,0,0],[0.75,0,0],[1,0.25,0],[1,0.5,0],[1,0.75,0],[0.75,1,0],[0.5,1,0],[0.25,1,0],[0,0.75,0],[0,0.5,0],[0,0.25,0]];shape=mxgraph.bpmn.task;whiteSpace=wrap;rectStyle=rounded;size=10;html=1;container=1;expand=0;collapsible=0;taskMarker=abstract;" parent="qcsIHLgInA1QgSfUokJL-1" vertex="1">
          <mxGeometry x="650" y="255" width="120" height="80" as="geometry" />
        </mxCell>
        <mxCell id="qcsIHLgInA1QgSfUokJL-15" value="" style="edgeStyle=elbowEdgeStyle;fontSize=12;html=1;endArrow=blockThin;endFill=1;rounded=0;exitX=1;exitY=0.5;exitDx=0;exitDy=0;exitPerimeter=0;entryX=0;entryY=0.5;entryDx=0;entryDy=0;entryPerimeter=0;" parent="qcsIHLgInA1QgSfUokJL-1" source="qcsIHLgInA1QgSfUokJL-10" target="qcsIHLgInA1QgSfUokJL-12" edge="1">
          <mxGeometry width="160" relative="1" as="geometry">
            <mxPoint x="420" y="80" as="sourcePoint" />
            <mxPoint x="490" y="120" as="targetPoint" />
          </mxGeometry>
        </mxCell>
        <mxCell id="qcsIHLgInA1QgSfUokJL-28" value="angemeldet" style="edgeStyle=elbowEdgeStyle;fontSize=12;html=1;endArrow=blockThin;endFill=1;rounded=0;entryX=0;entryY=0.5;entryDx=0;entryDy=0;entryPerimeter=0;exitX=0.5;exitY=1;exitDx=0;exitDy=0;exitPerimeter=0;" parent="qcsIHLgInA1QgSfUokJL-1" source="qcsIHLgInA1QgSfUokJL-12" target="qcsIHLgInA1QgSfUokJL-13" edge="1">
          <mxGeometry width="160" relative="1" as="geometry">
            <mxPoint x="440" y="140" as="sourcePoint" />
            <mxPoint x="530" y="76" as="targetPoint" />
            <Array as="points">
              <mxPoint x="525" y="275" />
            </Array>
          </mxGeometry>
        </mxCell>
        <mxCell id="qcsIHLgInA1QgSfUokJL-29" style="edgeStyle=orthogonalEdgeStyle;rounded=0;orthogonalLoop=1;jettySize=auto;html=1;exitX=0.75;exitY=0.75;exitDx=0;exitDy=0;exitPerimeter=0;entryX=0.25;entryY=0.75;entryDx=0;entryDy=0;entryPerimeter=0;" parent="qcsIHLgInA1QgSfUokJL-1" source="qcsIHLgInA1QgSfUokJL-12" target="qcsIHLgInA1QgSfUokJL-12" edge="1">
          <mxGeometry relative="1" as="geometry" />
        </mxCell>
        <mxCell id="qcsIHLgInA1QgSfUokJL-30" value="&#xa;&lt;span style=&quot;color: rgb(0, 0, 0); font-family: Helvetica; font-size: 12px; font-style: normal; font-variant-ligatures: normal; font-variant-caps: normal; font-weight: 400; letter-spacing: normal; orphans: 2; text-align: center; text-indent: 0px; text-transform: none; widows: 2; word-spacing: 0px; -webkit-text-stroke-width: 0px; white-space: normal; background-color: rgb(251, 251, 251); text-decoration-thickness: initial; text-decoration-style: initial; text-decoration-color: initial; display: inline !important; float: none;&quot;&gt;ohne Anmeldung zu verlassen&lt;/span&gt;&#xa;&#xa;" style="points=[[0.145,0.145,0],[0.5,0,0],[0.855,0.145,0],[1,0.5,0],[0.855,0.855,0],[0.5,1,0],[0.145,0.855,0],[0,0.5,0]];shape=mxgraph.bpmn.event;html=1;verticalLabelPosition=bottom;labelBackgroundColor=#ffffff;verticalAlign=top;align=center;perimeter=ellipsePerimeter;outlineConnect=0;aspect=fixed;outline=end;symbol=terminate2;" parent="qcsIHLgInA1QgSfUokJL-1" vertex="1">
          <mxGeometry x="910" y="51" width="50" height="50" as="geometry" />
        </mxCell>
        <mxCell id="qcsIHLgInA1QgSfUokJL-32" value="verlässt die Schule" style="points=[[0.145,0.145,0],[0.5,0,0],[0.855,0.145,0],[1,0.5,0],[0.855,0.855,0],[0.5,1,0],[0.145,0.855,0],[0,0.5,0]];shape=mxgraph.bpmn.event;html=1;verticalLabelPosition=bottom;labelBackgroundColor=#ffffff;verticalAlign=top;align=center;perimeter=ellipsePerimeter;outlineConnect=0;aspect=fixed;outline=end;symbol=terminate2;" parent="qcsIHLgInA1QgSfUokJL-1" vertex="1">
          <mxGeometry x="910" y="270" width="50" height="50" as="geometry" />
        </mxCell>
        <mxCell id="qcsIHLgInA1QgSfUokJL-33" value="" style="edgeStyle=elbowEdgeStyle;fontSize=12;html=1;endArrow=blockThin;endFill=1;rounded=0;entryX=0;entryY=0.5;entryDx=0;entryDy=0;entryPerimeter=0;exitX=1;exitY=0.5;exitDx=0;exitDy=0;exitPerimeter=0;" parent="qcsIHLgInA1QgSfUokJL-1" source="qcsIHLgInA1QgSfUokJL-13" target="qcsIHLgInA1QgSfUokJL-32" edge="1">
          <mxGeometry width="160" relative="1" as="geometry">
            <mxPoint x="800" y="325" as="sourcePoint" />
            <mxPoint x="900" y="363.18" as="targetPoint" />
          </mxGeometry>
        </mxCell>
        <mxCell id="qcsIHLgInA1QgSfUokJL-2" value="DOJO-Schule" style="swimlane;html=1;startSize=20;fontStyle=0;collapsible=0;horizontal=0;swimlaneLine=1;swimlaneFillColor=#ffffff;strokeWidth=2;whiteSpace=wrap;" parent="1" vertex="1">
          <mxGeometry x="40" y="630" width="1230" height="480" as="geometry" />
        </mxCell>
        <mxCell id="qcsIHLgInA1QgSfUokJL-3" value="Sensei" style="swimlane;html=1;startSize=20;fontStyle=0;collapsible=0;horizontal=0;swimlaneLine=0;fillColor=none;whiteSpace=wrap;" parent="qcsIHLgInA1QgSfUokJL-2" vertex="1">
          <mxGeometry width="1210" height="240" as="geometry" />
        </mxCell>
        <mxCell id="qcsIHLgInA1QgSfUokJL-38" value="Anfrage erhalten" style="points=[[0.145,0.145,0],[0.5,0,0],[0.855,0.145,0],[1,0.5,0],[0.855,0.855,0],[0.5,1,0],[0.145,0.855,0],[0,0.5,0]];shape=mxgraph.bpmn.event;html=1;verticalLabelPosition=bottom;labelBackgroundColor=#ffffff;verticalAlign=top;align=center;perimeter=ellipsePerimeter;outlineConnect=0;aspect=fixed;outline=standard;symbol=general;" parent="qcsIHLgInA1QgSfUokJL-3" vertex="1">
          <mxGeometry x="220" y="70" width="50" height="50" as="geometry" />
        </mxCell>
        <mxCell id="qcsIHLgInA1QgSfUokJL-39" value="Überprüft den entsprechenden Ausbildungsplan und Standorten" style="points=[[0.25,0,0],[0.5,0,0],[0.75,0,0],[1,0.25,0],[1,0.5,0],[1,0.75,0],[0.75,1,0],[0.5,1,0],[0.25,1,0],[0,0.75,0],[0,0.5,0],[0,0.25,0]];shape=mxgraph.bpmn.task;whiteSpace=wrap;rectStyle=rounded;size=10;html=1;container=1;expand=0;collapsible=0;taskMarker=abstract;" parent="qcsIHLgInA1QgSfUokJL-3" vertex="1">
          <mxGeometry x="294" y="55" width="120" height="80" as="geometry" />
        </mxCell>
        <mxCell id="qcsIHLgInA1QgSfUokJL-40" value="" style="edgeStyle=elbowEdgeStyle;fontSize=12;html=1;endArrow=blockThin;endFill=1;rounded=0;entryX=0;entryY=0.5;entryDx=0;entryDy=0;entryPerimeter=0;exitX=1;exitY=0.5;exitDx=0;exitDy=0;exitPerimeter=0;" parent="qcsIHLgInA1QgSfUokJL-3" source="qcsIHLgInA1QgSfUokJL-38" target="qcsIHLgInA1QgSfUokJL-39" edge="1">
          <mxGeometry width="160" relative="1" as="geometry">
            <mxPoint x="270" y="100" as="sourcePoint" />
            <mxPoint x="170" y="70" as="targetPoint" />
          </mxGeometry>
        </mxCell>
        <mxCell id="qcsIHLgInA1QgSfUokJL-42" value="" style="points=[[0.25,0.25,0],[0.5,0,0],[0.75,0.25,0],[1,0.5,0],[0.75,0.75,0],[0.5,1,0],[0.25,0.75,0],[0,0.5,0]];shape=mxgraph.bpmn.gateway2;html=1;verticalLabelPosition=bottom;labelBackgroundColor=#ffffff;verticalAlign=top;align=center;perimeter=rhombusPerimeter;outlineConnect=0;outline=none;symbol=none;gwType=exclusive;" parent="qcsIHLgInA1QgSfUokJL-3" vertex="1">
          <mxGeometry x="450" y="70" width="50" height="50" as="geometry" />
        </mxCell>
        <mxCell id="qcsIHLgInA1QgSfUokJL-43" style="edgeStyle=orthogonalEdgeStyle;rounded=0;orthogonalLoop=1;jettySize=auto;html=1;exitX=1;exitY=0.5;exitDx=0;exitDy=0;exitPerimeter=0;entryX=0;entryY=0.5;entryDx=0;entryDy=0;entryPerimeter=0;" parent="qcsIHLgInA1QgSfUokJL-3" source="qcsIHLgInA1QgSfUokJL-39" target="qcsIHLgInA1QgSfUokJL-42" edge="1">
          <mxGeometry relative="1" as="geometry" />
        </mxCell>
        <mxCell id="qcsIHLgInA1QgSfUokJL-44" value="Studenten informieren" style="points=[[0.25,0,0],[0.5,0,0],[0.75,0,0],[1,0.25,0],[1,0.5,0],[1,0.75,0],[0.75,1,0],[0.5,1,0],[0.25,1,0],[0,0.75,0],[0,0.5,0],[0,0.25,0]];shape=mxgraph.bpmn.task;whiteSpace=wrap;rectStyle=rounded;size=10;html=1;container=1;expand=0;collapsible=0;taskMarker=abstract;" parent="qcsIHLgInA1QgSfUokJL-3" vertex="1">
          <mxGeometry x="640" y="55" width="120" height="80" as="geometry" />
        </mxCell>
        <mxCell id="qcsIHLgInA1QgSfUokJL-41" value="Anmeldung genehmigen" style="points=[[0.25,0,0],[0.5,0,0],[0.75,0,0],[1,0.25,0],[1,0.5,0],[1,0.75,0],[0.75,1,0],[0.5,1,0],[0.25,1,0],[0,0.75,0],[0,0.5,0],[0,0.25,0]];shape=mxgraph.bpmn.task;whiteSpace=wrap;rectStyle=rounded;size=10;html=1;container=1;expand=0;collapsible=0;taskMarker=abstract;" parent="qcsIHLgInA1QgSfUokJL-3" vertex="1">
          <mxGeometry x="340" y="160" width="125" height="80" as="geometry" />
        </mxCell>
        <mxCell id="qcsIHLgInA1QgSfUokJL-47" value="" style="points=[[0.25,0.25,0],[0.5,0,0],[0.75,0.25,0],[1,0.5,0],[0.75,0.75,0],[0.5,1,0],[0.25,0.75,0],[0,0.5,0]];shape=mxgraph.bpmn.gateway2;html=1;verticalLabelPosition=bottom;labelBackgroundColor=#ffffff;verticalAlign=top;align=center;perimeter=rhombusPerimeter;outlineConnect=0;outline=none;symbol=none;gwType=exclusive;" parent="qcsIHLgInA1QgSfUokJL-3" vertex="1">
          <mxGeometry x="540" y="70" width="50" height="50" as="geometry" />
        </mxCell>
        <mxCell id="qcsIHLgInA1QgSfUokJL-48" style="edgeStyle=orthogonalEdgeStyle;rounded=0;orthogonalLoop=1;jettySize=auto;html=1;entryX=0;entryY=0.5;entryDx=0;entryDy=0;entryPerimeter=0;exitX=1;exitY=0.5;exitDx=0;exitDy=0;exitPerimeter=0;" parent="qcsIHLgInA1QgSfUokJL-3" source="qcsIHLgInA1QgSfUokJL-42" target="qcsIHLgInA1QgSfUokJL-47" edge="1">
          <mxGeometry relative="1" as="geometry">
            <mxPoint x="510" y="50" as="sourcePoint" />
            <mxPoint x="460" y="105" as="targetPoint" />
          </mxGeometry>
        </mxCell>
        <mxCell id="qcsIHLgInA1QgSfUokJL-51" style="edgeStyle=orthogonalEdgeStyle;rounded=0;orthogonalLoop=1;jettySize=auto;html=1;exitX=0.5;exitY=1;exitDx=0;exitDy=0;exitPerimeter=0;entryX=0.75;entryY=0;entryDx=0;entryDy=0;entryPerimeter=0;" parent="qcsIHLgInA1QgSfUokJL-3" source="qcsIHLgInA1QgSfUokJL-42" target="qcsIHLgInA1QgSfUokJL-41" edge="1">
          <mxGeometry relative="1" as="geometry" />
        </mxCell>
        <mxCell id="qcsIHLgInA1QgSfUokJL-52" style="edgeStyle=orthogonalEdgeStyle;rounded=0;orthogonalLoop=1;jettySize=auto;html=1;exitX=1;exitY=0.5;exitDx=0;exitDy=0;exitPerimeter=0;entryX=0;entryY=0.5;entryDx=0;entryDy=0;entryPerimeter=0;" parent="qcsIHLgInA1QgSfUokJL-3" source="qcsIHLgInA1QgSfUokJL-47" target="qcsIHLgInA1QgSfUokJL-44" edge="1">
          <mxGeometry relative="1" as="geometry" />
        </mxCell>
        <mxCell id="qcsIHLgInA1QgSfUokJL-14" value="Option abwägen" style="points=[[0.25,0,0],[0.5,0,0],[0.75,0,0],[1,0.25,0],[1,0.5,0],[1,0.75,0],[0.75,1,0],[0.5,1,0],[0.25,1,0],[0,0.75,0],[0,0.5,0],[0,0.25,0]];shape=mxgraph.bpmn.task;whiteSpace=wrap;rectStyle=rounded;size=10;html=1;container=1;expand=0;collapsible=0;taskMarker=abstract;" parent="1" vertex="1">
          <mxGeometry x="700" y="216" width="120" height="80" as="geometry" />
        </mxCell>
        <mxCell id="qcsIHLgInA1QgSfUokJL-27" value="nicht gebucht" style="edgeStyle=elbowEdgeStyle;fontSize=12;html=1;endArrow=blockThin;endFill=1;rounded=0;exitX=0.5;exitY=0;exitDx=0;exitDy=0;exitPerimeter=0;entryX=0;entryY=0.5;entryDx=0;entryDy=0;entryPerimeter=0;" parent="1" source="qcsIHLgInA1QgSfUokJL-12" target="qcsIHLgInA1QgSfUokJL-14" edge="1">
          <mxGeometry width="160" relative="1" as="geometry">
            <mxPoint x="520" y="346" as="sourcePoint" />
            <mxPoint x="580" y="346" as="targetPoint" />
            <Array as="points">
              <mxPoint x="565" y="300" />
            </Array>
          </mxGeometry>
        </mxCell>
        <mxCell id="qcsIHLgInA1QgSfUokJL-31" value="" style="edgeStyle=elbowEdgeStyle;fontSize=12;html=1;endArrow=blockThin;endFill=1;rounded=0;exitX=1;exitY=0.5;exitDx=0;exitDy=0;exitPerimeter=0;entryX=0;entryY=0.5;entryDx=0;entryDy=0;entryPerimeter=0;" parent="1" source="qcsIHLgInA1QgSfUokJL-14" target="qcsIHLgInA1QgSfUokJL-30" edge="1">
          <mxGeometry width="160" relative="1" as="geometry">
            <mxPoint x="360" y="380" as="sourcePoint" />
            <mxPoint x="910" y="256" as="targetPoint" />
            <Array as="points" />
          </mxGeometry>
        </mxCell>
        <mxCell id="qcsIHLgInA1QgSfUokJL-36" value="" style="dashed=1;dashPattern=8 4;endArrow=blockThin;endFill=1;startArrow=oval;startFill=0;endSize=6;startSize=4;html=1;rounded=0;exitX=0.5;exitY=1;exitDx=0;exitDy=0;exitPerimeter=0;entryX=0.5;entryY=0;entryDx=0;entryDy=0;entryPerimeter=0;" parent="1" source="qcsIHLgInA1QgSfUokJL-7" target="qcsIHLgInA1QgSfUokJL-38" edge="1">
          <mxGeometry width="160" relative="1" as="geometry">
            <mxPoint x="460" y="610" as="sourcePoint" />
            <mxPoint x="290" y="690" as="targetPoint" />
          </mxGeometry>
        </mxCell>
        <mxCell id="qcsIHLgInA1QgSfUokJL-37" value="Nachfrage nach Training" style="edgeLabel;html=1;align=center;verticalAlign=middle;resizable=0;points=[];" parent="qcsIHLgInA1QgSfUokJL-36" vertex="1" connectable="0">
          <mxGeometry x="-0.2567" y="3" relative="1" as="geometry">
            <mxPoint as="offset" />
          </mxGeometry>
        </mxCell>
        <mxCell id="qcsIHLgInA1QgSfUokJL-45" value="" style="dashed=1;dashPattern=8 4;endArrow=blockThin;endFill=1;startArrow=oval;startFill=0;endSize=6;startSize=4;html=1;rounded=0;exitX=0.5;exitY=0;exitDx=0;exitDy=0;exitPerimeter=0;entryX=0.5;entryY=1;entryDx=0;entryDy=0;entryPerimeter=0;" parent="1" source="qcsIHLgInA1QgSfUokJL-44" target="qcsIHLgInA1QgSfUokJL-10" edge="1">
          <mxGeometry width="160" relative="1" as="geometry">
            <mxPoint x="300" y="435" as="sourcePoint" />
            <mxPoint x="300" y="690" as="targetPoint" />
            <Array as="points">
              <mxPoint x="740" y="570" />
              <mxPoint x="455" y="570" />
            </Array>
          </mxGeometry>
        </mxCell>
        <mxCell id="qcsIHLgInA1QgSfUokJL-49" value="" style="edgeStyle=elbowEdgeStyle;fontSize=12;html=1;endArrow=blockThin;endFill=1;rounded=0;" parent="1" edge="1">
          <mxGeometry width="160" relative="1" as="geometry">
            <mxPoint x="500" y="620" as="sourcePoint" />
            <mxPoint x="660" y="620" as="targetPoint" />
          </mxGeometry>
        </mxCell>
        <mxCell id="qcsIHLgInA1QgSfUokJL-54" value="Schüler zum Training hinzufügen" style="points=[[0.25,0,0],[0.5,0,0],[0.75,0,0],[1,0.25,0],[1,0.5,0],[1,0.75,0],[0.75,1,0],[0.5,1,0],[0.25,1,0],[0,0.75,0],[0,0.5,0],[0,0.25,0]];shape=mxgraph.bpmn.task;whiteSpace=wrap;rectStyle=rounded;size=10;html=1;container=1;expand=0;collapsible=0;taskMarker=abstract;" parent="1" vertex="1">
          <mxGeometry x="540" y="789.5454545454545" width="120" height="80" as="geometry" />
        </mxCell>
        <mxCell id="qcsIHLgInA1QgSfUokJL-53" style="edgeStyle=orthogonalEdgeStyle;rounded=0;orthogonalLoop=1;jettySize=auto;html=1;exitX=1;exitY=0.5;exitDx=0;exitDy=0;exitPerimeter=0;" parent="1" source="qcsIHLgInA1QgSfUokJL-41" target="qcsIHLgInA1QgSfUokJL-54" edge="1">
          <mxGeometry relative="1" as="geometry">
            <mxPoint x="600" y="829.5454545454545" as="targetPoint" />
          </mxGeometry>
        </mxCell>
        <mxCell id="qcsIHLgInA1QgSfUokJL-55" style="edgeStyle=orthogonalEdgeStyle;rounded=0;orthogonalLoop=1;jettySize=auto;html=1;exitX=0.5;exitY=0;exitDx=0;exitDy=0;exitPerimeter=0;entryX=0.5;entryY=1;entryDx=0;entryDy=0;entryPerimeter=0;" parent="1" source="qcsIHLgInA1QgSfUokJL-54" target="qcsIHLgInA1QgSfUokJL-47" edge="1">
          <mxGeometry relative="1" as="geometry" />
        </mxCell>
      </root>
    </mxGraphModel>
  </diagram>
</mxfile>
